<?xml version="1.0" encoding="UTF-8" standalone="no"?>
<svg xmlns:dc="http://purl.org/dc/elements/1.1/" xmlns:cc="http://creativecommons.org/ns#" xmlns:rdf="http://www.w3.org/1999/02/22-rdf-syntax-ns#" xmlns:svg="http://www.w3.org/2000/svg" xmlns="http://www.w3.org/2000/svg" xmlns:sodipodi="http://sodipodi.sourceforge.net/DTD/sodipodi-0.dtd" xmlns:inkscape="http://www.inkscape.org/namespaces/inkscape" width="79.375mm" height="52.916664mm" viewBox="0 0 79.375 52.916664" version="1.1" id="svg1071" inkscape:version="1.0.1 (3bc2e813f5, 2020-09-07)" sodipodi:docname="Flag CPLP.svg">
  <defs id="defs1065"/>
  <sodipodi:namedview id="base" pagecolor="#ffffff" bordercolor="#666666" borderopacity="1.0" inkscape:pageopacity="0.0" inkscape:pageshadow="2" inkscape:zoom="0.35" inkscape:cx="218.57143" inkscape:cy="171.42857" inkscape:document-units="mm" inkscape:current-layer="layer1" inkscape:document-rotation="0" showgrid="false" inkscape:window-width="1366" inkscape:window-height="706" inkscape:window-x="-8" inkscape:window-y="-8" inkscape:window-maximized="1"/>
  <metadata id="metadata1068">
    <rdf:RDF>
      <cc:Work rdf:about="">
        <dc:format>image/svg+xml</dc:format>
        <dc:type rdf:resource="http://purl.org/dc/dcmitype/StillImage"/>
        <dc:title/>
      </cc:Work>
    </rdf:RDF>
  </metadata>
  <g inkscape:label="Camada 1" inkscape:groupmode="layer" id="layer1" transform="translate(-48.002976,-102.80953)">
    <g id="g1001" transform="translate(153.83632,-29.482154)">
      <rect style="font-variation-settings:normal;opacity:1;vector-effect:none;fill:#01426a;fill-opacity:1;stroke-width:1;stroke-linecap:butt;stroke-linejoin:miter;stroke-miterlimit:4;stroke-dasharray:none;stroke-dashoffset:0;stroke-opacity:1;paint-order:stroke fill markers;stop-color:#000000;stop-opacity:1" id="rect997" width="79.375" height="52.916664" x="26.458344" y="-185.20834" transform="scale(-1)"/>
      <rect style="opacity:1;fill:#ffffff;fill-opacity:1;stroke-width:0.481158;stroke-linecap:round;paint-order:fill markers stroke;stop-color:#000000" id="rect999" width="74.612511" height="48.15416" x="-103.4521" y="-182.82709" transform="scale(1,-1)"/>
    </g>
    <g aria-label="CPLP" id="text1005" style="font-size:9.525px;line-height:1;font-family:'M Ying Hei PRC';-inkscape-font-specification:'M Ying Hei PRC';font-variation-settings:normal;letter-spacing:0.529167px;vector-effect:none;fill:#01426a;fill-opacity:1;stroke-width:1;stroke-linecap:butt;stroke-linejoin:miter;stroke-miterlimit:4;stroke-dasharray:none;stroke-dashoffset:0;stroke-opacity:1;paint-order:stroke fill markers;stop-color:#000000" transform="translate(-6.3115763,-29.482154)">
      <path d="m 87.921837,173.71485 c -0.314325,-0.0953 -0.85725,-0.2667 -1.666875,-0.2667 -1.31445,0 -2.07645,0.48577 -2.486025,0.85725 -0.447675,0.40957 -1.0287,1.20015 -1.0287,2.6289 0,0.60007 0.104775,1.00965 0.180975,1.24777 0.3429,1.0287 1.152525,1.76213 2.200275,2.03835 0.542925,0.1524 1.08585,0.1524 1.27635,0.1524 0.6477,0 0.97155,-0.0667 1.6002,-0.2286 l -0.0762,-1.20015 c -0.13335,0.0667 -0.20955,0.0952 -0.36195,0.14288 -0.295275,0.0857 -0.771525,0.1524 -1.08585,0.1524 -0.9906,0.01 -1.762125,-0.51435 -2.105025,-1.4478 -0.1524,-0.4191 -0.161925,-0.82868 -0.161925,-0.98108 0,-0.31432 0.04762,-1.45732 1.057275,-2.00025 0.47625,-0.25717 0.9525,-0.2667 1.143,-0.2667 0.17145,0 0.638175,0.01 1.12395,0.1905 0.09525,0.0381 0.1905,0.0857 0.28575,0.13335 z" style="font-style:normal;font-variant:normal;font-weight:bold;font-stretch:normal;font-size:9.525px;font-family:'Frutiger BQ';-inkscape-font-specification:'Frutiger BQ Bold';font-variation-settings:normal;vector-effect:none;fill:#01426a;fill-opacity:1;stroke-width:1;stroke-linecap:butt;stroke-linejoin:miter;stroke-miterlimit:4;stroke-dasharray:none;stroke-dashoffset:0;stroke-opacity:1;paint-order:stroke fill markers;stop-color:#000000;stop-opacity:1" id="path1029"/>
      <path d="m 89.355862,173.55292 v 6.72465 h 1.362075 v -2.54317 c 0.1905,0.01 0.390525,0.01 0.581024,0.01 0.59055,0 1.171575,-0.0667 1.685925,-0.40005 0.581025,-0.381 0.904875,-1.01917 0.904875,-1.7145 0.0095,-0.61912 -0.257175,-1.03822 -0.390525,-1.2192 -0.600075,-0.80962 -1.6383,-0.82867 -1.914525,-0.84772 -0.1524,-0.01 -0.314325,-0.01 -0.466724,-0.01 z m 1.343025,1.03823 c 0.13335,0 0.2667,-0.01 0.409575,-0.01 0.476249,0 1.000124,0.0572 1.247774,0.54293 0.104775,0.21907 0.1143,0.40957 0.1143,0.50482 0,0.23813 -0.0762,0.4191 -0.1143,0.48578 -0.13335,0.28575 -0.4191,0.54292 -1.095375,0.56197 -0.180974,0.01 -0.371474,0 -0.552449,-0.01 z" style="font-style:normal;font-variant:normal;font-weight:bold;font-stretch:normal;font-size:9.525px;font-family:'Frutiger BQ';-inkscape-font-specification:'Frutiger BQ Bold';font-variation-settings:normal;vector-effect:none;fill:#01426a;fill-opacity:1;stroke-width:1;stroke-linecap:butt;stroke-linejoin:miter;stroke-miterlimit:4;stroke-dasharray:none;stroke-dashoffset:0;stroke-opacity:1;paint-order:stroke fill markers;stop-color:#000000;stop-opacity:1" id="path1031"/>
      <path d="m 96.809686,173.55292 h -1.3716 v 6.72465 h 3.971925 v -1.143 h -2.600325 z" style="font-style:normal;font-variant:normal;font-weight:bold;font-stretch:normal;font-size:9.525px;font-family:'Frutiger BQ';-inkscape-font-specification:'Frutiger BQ Bold';font-variation-settings:normal;vector-effect:none;fill:#01426a;fill-opacity:1;stroke-width:1;stroke-linecap:butt;stroke-linejoin:miter;stroke-miterlimit:4;stroke-dasharray:none;stroke-dashoffset:0;stroke-opacity:1;paint-order:stroke fill markers;stop-color:#000000;stop-opacity:1" id="path1033"/>
      <path d="m 100.72973,173.55292 v 6.72465 h 1.36208 v -2.54317 c 0.1905,0.01 0.39052,0.01 0.58102,0.01 0.59055,0 1.17158,-0.0667 1.68593,-0.40005 0.58102,-0.381 0.90487,-1.01917 0.90487,-1.7145 0.01,-0.61912 -0.25717,-1.03822 -0.39052,-1.2192 -0.60008,-0.80962 -1.6383,-0.82867 -1.91453,-0.84772 -0.1524,-0.01 -0.31432,-0.01 -0.46672,-0.01 z m 1.34303,1.03823 c 0.13335,0 0.2667,-0.01 0.40957,-0.01 0.47625,0 1.00013,0.0572 1.24778,0.54293 0.10477,0.21907 0.1143,0.40957 0.1143,0.50482 0,0.23813 -0.0762,0.4191 -0.1143,0.48578 -0.13335,0.28575 -0.4191,0.54292 -1.09538,0.56197 -0.18097,0.01 -0.37147,0 -0.55245,-0.01 z" style="font-style:normal;font-variant:normal;font-weight:bold;font-stretch:normal;font-size:9.525px;font-family:'Frutiger BQ';-inkscape-font-specification:'Frutiger BQ Bold';font-variation-settings:normal;vector-effect:none;fill:#01426a;fill-opacity:1;stroke-width:1;stroke-linecap:butt;stroke-linejoin:miter;stroke-miterlimit:4;stroke-dasharray:none;stroke-dashoffset:0;stroke-opacity:1;paint-order:stroke fill markers;stop-color:#000000;stop-opacity:1" id="path1035"/>
    </g>
    <g id="g1027" transform="matrix(0.43003031,0,0,0.43003031,137.39863,106.77199)" style="font-variation-settings:normal;vector-effect:none;fill:#01426a;fill-opacity:1;stroke-width:2.32542;stroke-linecap:butt;stroke-linejoin:miter;stroke-miterlimit:4;stroke-dasharray:none;stroke-dashoffset:0;stroke-opacity:1;paint-order:stroke fill markers;stop-color:#000000">
      <circle style="font-variation-settings:normal;vector-effect:none;fill:#01426a;fill-opacity:1;fill-rule:evenodd;stroke-width:2.32542;stroke-linecap:butt;stroke-linejoin:miter;stroke-miterlimit:4;stroke-dasharray:none;stroke-dashoffset:0;stroke-opacity:1;paint-order:stroke fill markers;stop-color:#000000;stop-opacity:1" id="circle1007" cx="115.5922" cy="-41.407299" r="5.4239583" transform="scale(-1)"/>
      <g id="g1025" style="font-variation-settings:normal;vector-effect:none;fill:#01426a;fill-opacity:1;stroke-width:2.32542;stroke-linecap:butt;stroke-linejoin:miter;stroke-miterlimit:4;stroke-dasharray:none;stroke-dashoffset:0;stroke-opacity:1;paint-order:stroke fill markers;stop-color:#000000;stop-opacity:1">
        <path id="path1009" style="font-variation-settings:normal;vector-effect:none;fill:#01426a;fill-opacity:1;fill-rule:evenodd;stroke-width:2.32542;stroke-linecap:butt;stroke-linejoin:miter;stroke-miterlimit:4;stroke-dasharray:none;stroke-dashoffset:0;stroke-opacity:1;paint-order:stroke fill markers;stop-color:#000000;stop-opacity:1" d="m -122.20678,37.835428 a 1.190625,1.190625 0 0 0 1.19062,-1.190625 c 0.001,-3.722301 0.0745,-7.898019 0.11937,-10.834997 -0.0616,-5.373534 0.37214,-10.907543 3.18792,-10.993128 1.82045,0.434898 3.35118,2.301735 4.59352,3.49436 l 6.80837,-8.822716 c -2.90643,-2.747979 -7.13134,-6.649823 -11.67732,-7.364926 -2.07589,-0.326546 -4.36475,0.207775 -6.10712,1.56373 -5.34915,5.496412 -5.21536,16.65624 0.73484,33.266702 a 1.190625,1.190625 0 0 0 5.1e-4,0.0021 1.190625,1.190625 0 0 0 1.14929,0.879533 z"/>
        <path id="path1011" style="font-variation-settings:normal;vector-effect:none;fill:#01426a;fill-opacity:1;fill-rule:evenodd;stroke-width:2.32542;stroke-linecap:butt;stroke-linejoin:miter;stroke-miterlimit:4;stroke-dasharray:none;stroke-dashoffset:0;stroke-opacity:1;paint-order:stroke fill markers;stop-color:#000000;stop-opacity:1" d="m -112.02033,34.792714 a 1.190625,1.190625 0 0 0 1.19062,1.190625 c 3.7223,0.0011 7.89802,0.07447 10.834997,0.119372 5.373533,-0.0616 10.907543,0.372134 10.993133,3.18792 -0.4349,1.820442 -2.30174,3.351178 -3.49436,4.593518 l 8.82271,6.80837 c 2.74798,-2.906435 6.64983,-7.131341 7.36493,-11.677325 0.32655,-2.075891 -0.20777,-4.364746 -1.56373,-6.10712 -5.49641,-5.349145 -16.65624,-5.215353 -33.2667,0.734841 a 1.190625,1.190625 0 0 0 -0.002,5.16e-4 1.190625,1.190625 0 0 0 -0.87954,1.149283 z"/>
        <path id="path1013" style="font-variation-settings:normal;vector-effect:none;fill:#01426a;fill-opacity:1;fill-rule:evenodd;stroke-width:2.32542;stroke-linecap:butt;stroke-linejoin:miter;stroke-miterlimit:4;stroke-dasharray:none;stroke-dashoffset:0;stroke-opacity:1;paint-order:stroke fill markers;stop-color:#000000;stop-opacity:1" d="m -108.97761,44.979164 a 1.190625,1.190625 0 0 0 -1.19063,1.190625 c -0.001,3.722301 -0.0745,7.898019 -0.11937,10.834997 0.0616,5.373534 -0.37214,10.907543 -3.18792,10.993128 -1.82044,-0.434898 -3.35118,-2.301735 -4.59352,-3.49436 l -6.80837,8.822716 c 2.90644,2.747979 7.13134,6.649823 11.67733,7.364926 2.07589,0.326546 4.36474,-0.207775 6.10712,-1.56373 5.34914,-5.496412 5.21535,-16.65624 -0.73484,-33.266702 a 1.190625,1.190625 0 0 0 -5.2e-4,-0.0021 1.190625,1.190625 0 0 0 -1.14928,-0.879533 z"/>
        <path id="path1015" style="font-variation-settings:normal;vector-effect:none;fill:#01426a;fill-opacity:1;fill-rule:evenodd;stroke-width:2.32542;stroke-linecap:butt;stroke-linejoin:miter;stroke-miterlimit:4;stroke-dasharray:none;stroke-dashoffset:0;stroke-opacity:1;paint-order:stroke fill markers;stop-color:#000000;stop-opacity:1" d="m -119.16407,48.021878 a 1.190625,1.190625 0 0 0 -1.19062,-1.190625 c -3.7223,-0.0011 -7.89802,-0.07447 -10.835,-0.119372 -5.37353,0.0616 -10.90754,-0.372134 -10.99312,-3.18792 0.43489,-1.82044 2.30173,-3.351177 3.49436,-4.593517 l -8.82272,-6.808369 c -2.74798,2.906434 -6.64982,7.131341 -7.36493,11.677323 -0.32654,2.075892 0.20778,4.364747 1.56373,6.10712 5.49642,5.349145 16.65624,5.215353 33.2667,-0.73484 a 1.190625,1.190625 0 0 0 0.002,-5.16e-4 1.190625,1.190625 0 0 0 0.87954,-1.149284 z"/>
        <path id="path1017" style="font-variation-settings:normal;vector-effect:none;fill:#01426a;fill-opacity:1;fill-rule:evenodd;stroke-width:2.32542;stroke-linecap:butt;stroke-linejoin:miter;stroke-miterlimit:4;stroke-dasharray:none;stroke-dashoffset:0;stroke-opacity:1;paint-order:stroke fill markers;stop-color:#000000;stop-opacity:1" d="m -117.74372,34.204386 a 1.190625,1.190625 0 0 0 1.6838,0 c 2.63284,-2.631286 5.6374,-5.532084 7.74591,-7.577091 3.7561,-3.84322 7.97593,-7.449659 10.027507,-5.519116 0.97973,1.594766 0.74207,3.997213 0.77723,5.718993 l 11.052842,-1.424358 c -0.112045,-3.998274 -0.340485,-9.744754 -3.049326,-13.464904 -1.236974,-1.69878 -3.233261,-2.939423 -5.424106,-3.212661 -7.668967,0.104133 -15.465557,8.089928 -23.003507,24.042721 a 1.190625,1.190625 0 0 0 -0.001,0.0018 1.190625,1.190625 0 0 0 0.19075,1.434591 z"/>
        <path id="path1019" style="font-variation-settings:normal;vector-effect:none;fill:#01426a;fill-opacity:1;fill-rule:evenodd;stroke-width:2.32542;stroke-linecap:butt;stroke-linejoin:miter;stroke-miterlimit:4;stroke-dasharray:none;stroke-dashoffset:0;stroke-opacity:1;paint-order:stroke fill markers;stop-color:#000000;stop-opacity:1" d="m -108.38929,39.255771 a 1.190625,1.190625 0 0 0 0,1.683798 c 2.63129,2.632842 5.53209,5.637401 7.57709,7.745908 3.843227,3.756105 7.449661,7.975936 5.519117,10.027515 -1.59476,0.979727 -3.99721,0.742068 -5.718987,0.777222 l 1.424357,11.052846 c 3.99827,-0.112045 9.744751,-0.340485 13.4649,-3.049325 1.69878,-1.236975 2.939423,-3.233262 3.212662,-5.42411 -0.104134,-7.668967 -8.089929,-15.465552 -24.042719,-23.0035 a 1.190625,1.190625 0 0 0 -0.002,-0.0011 1.190625,1.190625 0 0 0 -1.43459,0.190743 z"/>
        <path id="path1021" style="font-variation-settings:normal;vector-effect:none;fill:#01426a;fill-opacity:1;fill-rule:evenodd;stroke-width:2.32542;stroke-linecap:butt;stroke-linejoin:miter;stroke-miterlimit:4;stroke-dasharray:none;stroke-dashoffset:0;stroke-opacity:1;paint-order:stroke fill markers;stop-color:#000000;stop-opacity:1" d="m -113.44068,48.610204 a 1.190625,1.190625 0 0 0 -1.6838,0 c -2.63281,2.631316 -5.6374,5.532085 -7.7459,7.577091 -3.75611,3.843218 -7.97594,7.449659 -10.02752,5.519116 -0.97973,-1.594767 -0.74207,-3.997213 -0.77722,-5.718994 l -11.05285,1.424358 c 0.11205,3.998274 0.34049,9.744755 3.04933,13.464905 1.23697,1.69878 3.23326,2.939423 5.42411,3.212662 7.66897,-0.104134 15.46555,-8.089929 23.0035,-24.042722 a 1.190625,1.190625 0 0 0 0.001,-0.0018 1.190625,1.190625 0 0 0 -0.19074,-1.43459 z"/>
        <path id="path1023" style="font-variation-settings:normal;vector-effect:none;fill:#01426a;fill-opacity:1;fill-rule:evenodd;stroke-width:2.32542;stroke-linecap:butt;stroke-linejoin:miter;stroke-miterlimit:4;stroke-dasharray:none;stroke-dashoffset:0;stroke-opacity:1;paint-order:stroke fill markers;stop-color:#000000;stop-opacity:1" d="m -122.79511,43.558819 a 1.190625,1.190625 0 0 0 0,-1.683798 c -2.63129,-2.632842 -5.53208,-5.6374 -7.57709,-7.745908 -3.84322,-3.756104 -7.44966,-7.975936 -5.51912,-10.027515 1.59477,-0.979728 3.99722,-0.742069 5.719,-0.777222 l -1.42436,-11.052848 c -3.99827,0.112046 -9.74475,0.340485 -13.4649,3.049327 -1.69878,1.236974 -2.93943,3.233261 -3.21267,5.42411 0.10414,7.668967 8.08993,15.465552 24.04273,23.0035 a 1.190625,1.190625 0 0 0 0.002,0.0011 1.190625,1.190625 0 0 0 1.43458,-0.190742 z"/>
      </g>
    </g>
  </g>
</svg>